<?xml version="1.0" encoding="UTF-8" standalone="no"?><!DOCTYPE svg PUBLIC "-//W3C//DTD SVG 1.1//EN" "http://www.w3.org/Graphics/SVG/1.1/DTD/svg11.dtd"><svg width="100%" height="100%" viewBox="0 0 339 431" version="1.1" xmlns="http://www.w3.org/2000/svg" xmlns:xlink="http://www.w3.org/1999/xlink" xml:space="preserve" xmlns:serif="http://www.serif.com/" style="fill-rule:evenodd;clip-rule:evenodd;stroke-linecap:round;stroke-linejoin:round;stroke-miterlimit:1.5;"><rect x="-0" y="0" width="338.976" height="430.396"/><g><path d="M233.981,174.413l-100.125,4.596l34.863,40.85c9.745,10.133 18.941,8.196 27.791,-1.35l37.471,-44.096" style="fill:#fff;stroke:#fff;stroke-width:13.79px;"/><ellipse cx="182.144" cy="127.626" rx="54.017" ry="57.862" style="fill:none;stroke:#fff;stroke-width:41.63px;"/><path d="M117.827,246.301c42.054,29.845 84.921,33.608 128.771,-3.738c0.825,-2.829 -23.6,-11.587 -30.188,-6.471c-26.358,20.467 -51.321,10.171 -66.421,3.025c-10.095,-4.771 -26.591,-1.541 -32.162,7.184Z" style="fill:#fff;stroke:#fff;stroke-width:4.17px;"/><path d="M57.648,341.355c73.504,-56.817 132.579,-82.15 215.225,-38.246c25.096,20.871 -6.713,34.529 -23.238,26.754c-3.641,-1.712 -38.571,-29.65 -63.458,-23.862c-3.854,0.895 -53.721,22.575 -111.667,75.283c-7.266,8.367 -21.304,11.529 -16.862,-39.929Z" style="fill:#fff;stroke:#fff;stroke-width:4.17px;"/></g></svg>