<?xml version="1.0" encoding="UTF-8" standalone="no"?><!DOCTYPE svg PUBLIC "-//W3C//DTD SVG 1.1//EN" "http://www.w3.org/Graphics/SVG/1.1/DTD/svg11.dtd"><svg width="100%" height="100%" viewBox="0 0 2465 878" version="1.1" xmlns="http://www.w3.org/2000/svg" xmlns:xlink="http://www.w3.org/1999/xlink" xml:space="preserve" xmlns:serif="http://www.serif.com/" style="fill-rule:evenodd;clip-rule:evenodd;stroke-linecap:round;stroke-linejoin:round;stroke-miterlimit:1.5;"><g><path d="M472.286,0l0,571.493l-222.75,0c-65.257,0 -127.847,-25.924 -173.993,-72.069c-46.145,-46.146 -72.069,-108.73 -72.069,-173.993l-0,-325.431l468.812,-0Z" style="fill:#fff;"/><path d="M2218.04,0c135.896,0 246.063,110.167 246.063,246.063l-0,325.43l-2053.76,0l-0,-571.493l1807.69,0Z"/><text x="498.453px" y="381.639px" style="font-family:'ArialMT', 'Arial', sans-serif;font-size:274.882px;fill:#fff;">City Cross Link</text><g><path d="M298.779,221.34l-166.875,7.66l58.105,68.083c16.243,16.889 31.569,13.66 46.319,-2.25l62.451,-73.493" style="stroke:#000;stroke-width:22.99px;"/><ellipse cx="212.384" cy="143.361" rx="90.028" ry="96.438" style="fill:none;stroke:#000;stroke-width:69.38px;"/><path d="M105.189,341.153c70.09,49.743 141.535,56.014 214.618,-6.229c1.375,-4.716 -39.333,-19.313 -50.312,-10.785c-43.931,34.111 -85.535,16.951 -110.702,5.042c-16.826,-7.952 -44.319,-2.57 -53.604,11.972Z" style="stroke:#000;stroke-width:6.94px;"/><path d="M4.891,499.576c122.507,-94.694 220.965,-136.916 358.708,-63.743c41.826,34.785 -11.188,57.549 -38.729,44.591c-6.07,-2.855 -64.285,-49.417 -105.764,-39.771c-6.424,1.493 -89.535,37.625 -186.111,125.472c-12.111,13.944 -35.507,19.215 -28.104,-66.549Z" style="stroke:#000;stroke-width:6.94px;"/></g></g><g><g><g transform="matrix(5.20833,0,0,5.20833,3.06297,738.638)"><text x="0px" y="0px" style="font-family:'Arial-BoldMT', 'Arial', sans-serif;font-weight:700;font-size:26.4px;">&quot; WHERE GOD MEETS <tspan x="290.722px 308.331px " y="0px 0px ">YO</tspan>UR NEEDS,</text><text x="92.194px" y="26.4px" style="font-family:'Arial-BoldMT', 'Arial', sans-serif;font-weight:700;font-size:26.4px;">THROUGH HIS WORD &quot;</text></g></g></g></svg>