<?xml version="1.0" encoding="UTF-8" standalone="no"?>
<!DOCTYPE svg PUBLIC "-//W3C//DTD SVG 1.1//EN" "http://www.w3.org/Graphics/SVG/1.1/DTD/svg11.dtd">
<svg width="100%" height="100%" viewBox="0 0 2465 878" version="1.1" xmlns="http://www.w3.org/2000/svg" xmlns:xlink="http://www.w3.org/1999/xlink" xml:space="preserve" xmlns:serif="http://www.serif.com/" style="fill-rule:evenodd;clip-rule:evenodd;stroke-linecap:round;stroke-linejoin:round;stroke-miterlimit:1.5;">
    <g>
        <path d="M472.286,0L472.286,571.493L249.536,571.493C184.279,571.493 121.689,545.569 75.543,499.424C29.398,453.278 3.474,390.694 3.474,325.431L3.474,0L472.286,0Z" style="fill:white;"/>
        <path d="M2218.04,0C2353.94,0 2464.1,110.167 2464.1,246.063L2464.1,571.493L410.343,571.493L410.343,-0L2218.04,0Z"/>
        <path d="M660.054,312.65L686.092,319.227C680.634,340.613 670.813,356.92 656.631,368.15C642.448,379.38 625.112,384.994 604.621,384.994C583.414,384.994 566.167,380.677 552.879,372.042C539.591,363.407 529.48,350.903 522.545,334.528C515.611,318.153 512.143,300.57 512.143,281.78C512.143,261.289 516.058,243.415 523.888,228.159C531.717,212.902 542.857,201.315 557.308,193.396C571.759,185.477 587.664,181.517 605.023,181.517C624.709,181.517 641.263,186.528 654.685,196.55C668.107,206.572 677.457,220.665 682.737,238.829L657.101,244.869C652.537,230.552 645.916,220.128 637.236,213.596C628.557,207.064 617.64,203.798 604.487,203.798C589.364,203.798 576.725,207.422 566.57,214.67C556.414,221.918 549.278,231.648 545.161,243.862C541.045,256.076 538.987,268.671 538.987,281.645C538.987,298.378 541.426,312.986 546.302,325.468C551.179,337.95 558.762,347.279 569.053,353.453C579.343,359.627 590.483,362.714 602.473,362.714C617.058,362.714 629.407,358.508 639.518,350.097C649.629,341.686 656.474,329.204 660.054,312.65Z" style="fill:white;fill-rule:nonzero;"/>
        <path d="M715.218,212.656L715.218,184.873L739.377,184.873L739.377,212.656L715.218,212.656ZM715.218,381.639L715.218,239.098L739.377,239.098L739.377,381.639L715.218,381.639Z" style="fill:white;fill-rule:nonzero;"/>
        <path d="M828.902,360.03L832.392,381.371C825.591,382.802 819.507,383.518 814.138,383.518C805.369,383.518 798.568,382.131 793.736,379.357C788.904,376.583 785.504,372.937 783.536,368.418C781.567,363.9 780.583,354.392 780.583,339.897L780.583,257.888L762.866,257.888L762.866,239.098L780.583,239.098L780.583,203.798L804.608,189.302L804.608,239.098L828.902,239.098L828.902,257.888L804.608,257.888L804.608,341.239C804.608,348.129 805.033,352.558 805.883,354.527C806.733,356.495 808.12,358.061 810.044,359.224C811.968,360.388 814.719,360.969 818.299,360.969C820.983,360.969 824.517,360.656 828.902,360.03Z" style="fill:white;fill-rule:nonzero;"/>
        <path d="M851.451,436.535L848.766,413.852C854.046,415.283 858.654,415.999 862.591,415.999C867.96,415.999 872.255,415.104 875.476,413.315C878.697,411.525 881.337,409.02 883.395,405.799C884.916,403.383 887.377,397.387 890.777,387.813C891.225,386.471 891.94,384.502 892.925,381.907L838.834,239.098L864.873,239.098L894.535,321.643C898.383,332.112 901.828,343.118 904.87,354.661C907.644,343.565 910.955,332.738 914.803,322.18L945.27,239.098L969.43,239.098L915.205,384.055C909.389,399.714 904.87,410.496 901.649,416.402C897.354,424.366 892.433,430.204 886.885,433.918C881.337,437.631 874.716,439.488 867.02,439.488C862.367,439.488 857.178,438.503 851.451,436.535Z" style="fill:white;fill-rule:nonzero;"/>
        <path d="M1209.82,312.65L1235.86,319.227C1230.4,340.613 1220.58,356.92 1206.39,368.15C1192.21,379.38 1174.88,384.994 1154.38,384.994C1133.18,384.994 1115.93,380.677 1102.64,372.042C1089.36,363.407 1079.24,350.903 1072.31,334.528C1065.38,318.153 1061.91,300.57 1061.91,281.78C1061.91,261.289 1065.82,243.415 1073.65,228.159C1081.48,212.902 1092.62,201.315 1107.07,193.396C1121.52,185.477 1137.43,181.517 1154.79,181.517C1174.47,181.517 1191.03,186.528 1204.45,196.55C1217.87,206.572 1227.22,220.665 1232.5,238.829L1206.87,244.869C1202.3,230.552 1195.68,220.128 1187,213.596C1178.32,207.064 1167.4,203.798 1154.25,203.798C1139.13,203.798 1126.49,207.422 1116.33,214.67C1106.18,221.918 1099.04,231.648 1094.92,243.862C1090.81,256.076 1088.75,268.671 1088.75,281.645C1088.75,298.378 1091.19,312.986 1096.07,325.468C1100.94,337.95 1108.53,347.279 1118.82,353.453C1129.11,359.627 1140.25,362.714 1152.24,362.714C1166.82,362.714 1179.17,358.508 1189.28,350.097C1199.39,341.686 1206.24,329.204 1209.82,312.65Z" style="fill:white;fill-rule:nonzero;"/>
        <path d="M1264.58,381.639L1264.58,239.098L1286.32,239.098L1286.32,260.707C1291.87,250.596 1296.99,243.93 1301.69,240.708C1306.39,237.487 1311.56,235.876 1317.19,235.876C1325.34,235.876 1333.61,238.471 1342.02,243.661L1333.7,266.076C1327.8,262.586 1321.89,260.841 1315.99,260.841C1310.71,260.841 1305.96,262.43 1301.76,265.606C1297.55,268.783 1294.56,273.189 1292.77,278.827C1290.08,287.417 1288.74,296.812 1288.74,307.013L1288.74,381.639L1264.58,381.639Z" style="fill:white;fill-rule:nonzero;"/>
        <path d="M1347.39,310.368C1347.39,283.972 1354.73,264.42 1369.4,251.714C1381.66,241.156 1396.61,235.876 1414.23,235.876C1433.83,235.876 1449.85,242.297 1462.29,255.137C1474.72,267.977 1480.94,285.717 1480.94,308.355C1480.94,326.698 1478.19,341.127 1472.69,351.641C1467.18,362.155 1459.17,370.32 1448.66,376.136C1438.15,381.952 1426.67,384.86 1414.23,384.86C1394.28,384.86 1378.15,378.462 1365.85,365.667C1353.55,352.871 1347.39,334.438 1347.39,310.368ZM1372.22,310.368C1372.22,328.622 1376.2,342.29 1384.17,351.372C1392.13,360.455 1402.15,364.996 1414.23,364.996C1426.22,364.996 1436.2,360.432 1444.16,351.305C1452.13,342.178 1456.11,328.264 1456.11,309.563C1456.11,291.935 1452.11,278.581 1444.1,269.498C1436.09,260.416 1426.13,255.875 1414.23,255.875C1402.15,255.875 1392.13,260.394 1384.17,269.431C1376.2,278.469 1372.22,292.114 1372.22,310.368Z" style="fill:white;fill-rule:nonzero;"/>
        <path d="M1499.6,339.091L1523.49,335.333C1524.83,344.908 1528.57,352.245 1534.7,357.345C1540.83,362.446 1549.39,364.996 1560.4,364.996C1571.5,364.996 1579.73,362.736 1585.1,358.218C1590.47,353.699 1593.15,348.397 1593.15,342.313C1593.15,336.854 1590.78,332.559 1586.04,329.428C1582.73,327.28 1574.49,324.551 1561.34,321.24C1543.62,316.766 1531.34,312.896 1524.5,309.63C1517.65,306.364 1512.46,301.845 1508.93,296.074C1505.39,290.302 1503.62,283.927 1503.62,276.948C1503.62,270.595 1505.08,264.711 1507.99,259.298C1510.89,253.884 1514.85,249.388 1519.87,245.809C1523.62,243.035 1528.75,240.686 1535.23,238.762C1541.72,236.838 1548.68,235.876 1556.1,235.876C1567.29,235.876 1577.11,237.487 1585.57,240.708C1594.02,243.93 1600.26,248.292 1604.29,253.795C1608.32,259.298 1611.09,266.657 1612.61,275.874L1588.99,279.095C1587.91,271.758 1584.81,266.031 1579.66,261.915C1574.52,257.799 1567.25,255.741 1557.85,255.741C1546.75,255.741 1538.84,257.575 1534.09,261.244C1529.35,264.913 1526.98,269.208 1526.98,274.129C1526.98,277.261 1527.96,280.079 1529.93,282.585C1531.9,285.18 1534.99,287.327 1539.19,289.027C1541.61,289.922 1548.72,291.98 1560.53,295.201C1577.62,299.765 1589.55,303.501 1596.3,306.409C1603.06,309.317 1608.36,313.545 1612.21,319.093C1616.06,324.64 1617.98,331.53 1617.98,339.762C1617.98,347.816 1615.63,355.399 1610.93,362.513C1606.24,369.626 1599.46,375.129 1590.6,379.022C1581.74,382.914 1571.72,384.86 1560.53,384.86C1542.01,384.86 1527.9,381.013 1518.19,373.317C1508.48,365.622 1502.28,354.213 1499.6,339.091Z" style="fill:white;fill-rule:nonzero;"/>
        <path d="M1637.04,339.091L1660.93,335.333C1662.27,344.908 1666.01,352.245 1672.14,357.345C1678.27,362.446 1686.83,364.996 1697.84,364.996C1708.94,364.996 1717.17,362.736 1722.54,358.218C1727.91,353.699 1730.59,348.397 1730.59,342.313C1730.59,336.854 1728.22,332.559 1723.48,329.428C1720.17,327.28 1711.93,324.551 1698.78,321.24C1681.06,316.766 1668.78,312.896 1661.94,309.63C1655.09,306.364 1649.9,301.845 1646.37,296.074C1642.83,290.302 1641.07,283.927 1641.07,276.948C1641.07,270.595 1642.52,264.711 1645.43,259.298C1648.34,253.884 1652.3,249.388 1657.31,245.809C1661.06,243.035 1666.19,240.686 1672.67,238.762C1679.16,236.838 1686.12,235.876 1693.55,235.876C1704.73,235.876 1714.55,237.487 1723.01,240.708C1731.46,243.93 1737.7,248.292 1741.73,253.795C1745.76,259.298 1748.53,266.657 1750.05,275.874L1726.43,279.095C1725.36,271.758 1722.25,266.031 1717.1,261.915C1711.96,257.799 1704.69,255.741 1695.29,255.741C1684.19,255.741 1676.28,257.575 1671.53,261.244C1666.79,264.913 1664.42,269.208 1664.42,274.129C1664.42,277.261 1665.4,280.079 1667.37,282.585C1669.34,285.18 1672.43,287.327 1676.63,289.027C1679.05,289.922 1686.16,291.98 1697.98,295.201C1715.07,299.765 1726.99,303.501 1733.74,306.409C1740.5,309.317 1745.8,313.545 1749.65,319.093C1753.5,324.64 1755.42,331.53 1755.42,339.762C1755.42,347.816 1753.07,355.399 1748.37,362.513C1743.68,369.626 1736.9,375.129 1728.04,379.022C1719.18,382.914 1709.16,384.86 1697.98,384.86C1679.45,384.86 1665.34,381.013 1655.63,373.317C1645.92,365.622 1639.72,354.213 1637.04,339.091Z" style="fill:white;fill-rule:nonzero;"/>
        <path d="M1862.53,381.639L1862.53,184.873L1888.57,184.873L1888.57,358.419L1985.47,358.419L1985.47,381.639L1862.53,381.639Z" style="fill:white;fill-rule:nonzero;"/>
        <path d="M2013.53,212.656L2013.53,184.873L2037.68,184.873L2037.68,212.656L2013.53,212.656ZM2013.53,381.639L2013.53,239.098L2037.68,239.098L2037.68,381.639L2013.53,381.639Z" style="fill:white;fill-rule:nonzero;"/>
        <path d="M2074.46,381.639L2074.46,239.098L2096.2,239.098L2096.2,259.365C2106.67,243.706 2121.8,235.876 2141.57,235.876C2150.16,235.876 2158.06,237.42 2165.26,240.507C2172.46,243.594 2177.86,247.643 2181.43,252.654C2185.01,257.665 2187.52,263.615 2188.95,270.505C2189.85,274.979 2190.29,282.809 2190.29,293.994L2190.29,381.639L2166.13,381.639L2166.13,294.933C2166.13,285.09 2165.19,277.731 2163.31,272.854C2161.43,267.977 2158.1,264.085 2153.32,261.177C2148.53,258.269 2142.91,256.815 2136.47,256.815C2126.18,256.815 2117.3,260.081 2109.83,266.613C2102.36,273.145 2098.62,285.538 2098.62,303.792L2098.62,381.639L2074.46,381.639Z" style="fill:white;fill-rule:nonzero;"/>
        <path d="M2227.47,381.639L2227.47,184.873L2251.63,184.873L2251.63,297.081L2308.81,239.098L2340.08,239.098L2285.59,291.98L2345.59,381.639L2315.79,381.639L2268.68,308.758L2251.63,325.132L2251.63,381.639L2227.47,381.639Z" style="fill:white;fill-rule:nonzero;"/>
        <g>
            <path d="M298.779,221.34L131.904,229L190.009,297.083C206.252,313.972 221.578,310.743 236.328,294.833L298.779,221.34" style="stroke:black;stroke-width:22.99px;"/>
            <ellipse cx="212.384" cy="143.361" rx="90.028" ry="96.438" style="fill:none;stroke:black;stroke-width:69.38px;"/>
            <path d="M105.189,341.153C175.279,390.896 246.724,397.167 319.807,334.924C321.182,330.208 280.474,315.611 269.495,324.139C225.564,358.25 183.96,341.09 158.793,329.181C141.967,321.229 114.474,326.611 105.189,341.153Z" style="stroke:black;stroke-width:6.94px;"/>
            <path d="M4.891,499.576C127.398,404.882 225.856,362.66 363.599,435.833C405.425,470.618 352.411,493.382 324.87,480.424C318.8,477.569 260.585,431.007 219.106,440.653C212.682,442.146 129.571,478.278 32.995,566.125C20.884,580.069 -2.512,585.34 4.891,499.576Z" style="stroke:black;stroke-width:6.94px;"/>
        </g>
    </g>
    <g>
        <g>
            <g>
                <g>
                    <path d="M14.141,675.192L10.582,656.863L10.582,640.213L31.127,640.213L31.127,656.863L28.039,675.192L14.141,675.192ZM44.42,675.192L40.862,656.863L40.862,640.213L61.406,640.213L61.406,656.863L58.318,675.192L44.42,675.192Z" style="fill-rule:nonzero;"/>
                    <path d="M130.425,738.638L106.926,640.213L127.269,640.213L142.107,707.821L160.1,640.213L183.733,640.213L200.988,708.963L216.094,640.213L236.101,640.213L212.2,738.638L191.118,738.638L171.514,665.054L151.976,738.638L130.425,738.638Z" style="fill-rule:nonzero;"/>
                    <path d="M246.306,738.638L246.306,640.213L266.179,640.213L266.179,678.952L305.12,678.952L305.12,640.213L324.993,640.213L324.993,738.638L305.12,738.638L305.12,695.602L266.179,695.602L266.179,738.638L246.306,738.638Z" style="fill-rule:nonzero;"/>
                    <path d="M345.537,738.638L345.537,640.213L418.517,640.213L418.517,656.863L365.41,656.863L365.41,678.683L414.824,678.683L414.824,695.266L365.41,695.266L365.41,722.055L420.397,722.055L420.397,738.638L345.537,738.638Z" style="fill-rule:nonzero;"/>
                    <path d="M437.316,738.638L437.316,640.213L479.143,640.213C489.661,640.213 497.304,641.097 502.071,642.865C506.838,644.633 510.653,647.777 513.518,652.298C516.383,656.818 517.815,661.988 517.815,667.807C517.815,675.192 515.644,681.29 511.302,686.102C506.961,690.914 500.471,693.946 491.832,695.199C496.129,697.706 499.676,700.458 502.474,703.457C505.271,706.456 509.042,711.783 513.787,719.436L525.804,738.638L502.037,738.638L487.67,717.221C482.567,709.567 479.076,704.744 477.196,702.752C475.316,700.761 473.324,699.395 471.221,698.657C469.117,697.918 465.782,697.549 461.217,697.549L457.189,697.549L457.189,738.638L437.316,738.638ZM457.189,681.839L471.892,681.839C481.426,681.839 487.379,681.436 489.751,680.63C492.123,679.825 493.981,678.437 495.323,676.468C496.666,674.498 497.338,672.036 497.338,669.082C497.338,665.77 496.454,663.096 494.686,661.059C492.918,659.023 490.422,657.736 487.2,657.199C485.588,656.975 480.754,656.863 472.698,656.863L457.189,656.863L457.189,681.839Z" style="fill-rule:nonzero;"/>
                    <path d="M536.547,738.638L536.547,640.213L609.526,640.213L609.526,656.863L556.42,656.863L556.42,678.683L605.834,678.683L605.834,695.266L556.42,695.266L556.42,722.055L611.406,722.055L611.406,738.638L536.547,738.638Z" style="fill-rule:nonzero;"/>
                    <path d="M712.248,702.45L712.248,685.867L755.083,685.867L755.083,725.076C750.92,729.104 744.889,732.651 736.989,735.717C729.089,738.783 721.088,740.316 712.987,740.316C702.692,740.316 693.718,738.157 686.064,733.838C678.41,729.518 672.659,723.342 668.81,715.307C664.96,707.273 663.036,698.534 663.036,689.09C663.036,678.84 665.184,669.731 669.481,661.764C673.778,653.797 680.067,647.688 688.347,643.435C694.658,640.168 702.513,638.534 711.913,638.534C724.132,638.534 733.677,641.097 740.547,646.222C747.418,651.347 751.838,658.43 753.807,667.471L734.068,671.164C732.681,666.33 730.074,662.514 726.247,659.717C722.42,656.919 717.642,655.52 711.913,655.52C703.229,655.52 696.325,658.273 691.2,663.778C686.075,669.284 683.513,677.452 683.513,688.284C683.513,699.966 686.109,708.728 691.301,714.569C696.493,720.41 703.296,723.33 711.711,723.33C715.874,723.33 720.048,722.514 724.233,720.88C728.418,719.246 732.009,717.266 735.008,714.938L735.008,702.45L712.248,702.45Z" style="fill-rule:nonzero;"/>
                    <path d="M769.383,690.03C769.383,680.004 770.883,671.589 773.882,664.786C776.12,659.772 779.174,655.274 783.046,651.291C786.918,647.307 791.159,644.353 795.769,642.428C801.901,639.832 808.973,638.534 816.985,638.534C831.487,638.534 843.09,643.033 851.796,652.029C860.502,661.026 864.854,673.536 864.854,689.56C864.854,705.449 860.535,717.881 851.897,726.855C843.258,735.829 831.71,740.316 817.253,740.316C802.617,740.316 790.98,735.852 782.341,726.922C773.703,717.993 769.383,705.695 769.383,690.03ZM789.861,689.358C789.861,700.503 792.434,708.952 797.582,714.703C802.729,720.455 809.264,723.33 817.186,723.33C825.108,723.33 831.61,720.477 836.69,714.77C841.77,709.063 844.31,700.503 844.31,689.09C844.31,677.81 841.837,669.396 836.891,663.846C831.945,658.295 825.377,655.52 817.186,655.52C808.995,655.52 802.393,658.329 797.38,663.946C792.367,669.564 789.861,678.034 789.861,689.358Z" style="fill-rule:nonzero;"/>
                    <path d="M880.296,640.213L916.618,640.213C924.809,640.213 931.053,640.839 935.35,642.093C941.124,643.793 946.07,646.815 950.188,651.156C954.305,655.498 957.439,660.813 959.587,667.102C961.735,673.39 962.81,681.145 962.81,690.365C962.81,698.467 961.803,705.449 959.788,711.313C957.327,718.474 953.813,724.27 949.248,728.701C945.801,732.058 941.146,734.677 935.283,736.557C930.896,737.944 925.033,738.638 917.693,738.638L880.296,738.638L880.296,640.213ZM900.169,656.863L900.169,722.055L915.007,722.055C920.557,722.055 924.563,721.741 927.025,721.115C930.247,720.309 932.922,718.944 935.048,717.019C937.174,715.095 938.908,711.928 940.251,707.519C941.594,703.11 942.265,697.102 942.265,689.493C942.265,681.883 941.594,676.042 940.251,671.969C938.908,667.896 937.028,664.718 934.611,662.436C932.194,660.153 929.128,658.609 925.413,657.803C922.638,657.176 917.2,656.863 909.099,656.863L900.169,656.863Z" style="fill-rule:nonzero;"/>
                    <path d="M1017.6,738.638L1017.6,640.213L1047.34,640.213L1065.2,707.351L1082.85,640.213L1112.66,640.213L1112.66,738.638L1094.2,738.638L1094.2,661.16L1074.66,738.638L1055.53,738.638L1036.06,661.16L1036.06,738.638L1017.6,738.638Z" style="fill-rule:nonzero;"/>
                    <path d="M1132.4,738.638L1132.4,640.213L1205.38,640.213L1205.38,656.863L1152.28,656.863L1152.28,678.683L1201.69,678.683L1201.69,695.266L1152.28,695.266L1152.28,722.055L1207.26,722.055L1207.26,738.638L1132.4,738.638Z" style="fill-rule:nonzero;"/>
                    <path d="M1224.11,738.638L1224.11,640.213L1297.09,640.213L1297.09,656.863L1243.99,656.863L1243.99,678.683L1293.4,678.683L1293.4,695.266L1243.99,695.266L1243.99,722.055L1298.97,722.055L1298.97,738.638L1224.11,738.638Z" style="fill-rule:nonzero;"/>
                    <path d="M1337.98,738.638L1337.98,656.863L1308.78,656.863L1308.78,640.213L1386.99,640.213L1386.99,656.863L1357.85,656.863L1357.85,738.638L1337.98,738.638Z" style="fill-rule:nonzero;"/>
                    <path d="M1394.78,706.613L1414.12,704.733C1415.28,711.223 1417.64,715.99 1421.2,719.034C1424.76,722.077 1429.56,723.599 1435.6,723.599C1442,723.599 1446.82,722.245 1450.07,719.537C1453.31,716.829 1454.94,713.662 1454.94,710.037C1454.94,707.709 1454.25,705.729 1452.89,704.095C1451.52,702.461 1449.14,701.04 1445.74,699.832C1443.41,699.026 1438.11,697.594 1429.83,695.535C1419.17,692.894 1411.7,689.649 1407.4,685.8C1401.36,680.384 1398.34,673.782 1398.34,665.994C1398.34,660.981 1399.76,656.292 1402.6,651.928C1405.44,647.564 1409.54,644.241 1414.89,641.958C1420.24,639.676 1426.69,638.534 1434.26,638.534C1446.61,638.534 1455.91,641.242 1462.15,646.658C1468.4,652.074 1471.68,659.303 1471.99,668.344L1452.12,669.217C1451.27,664.159 1449.44,660.522 1446.64,658.307C1443.85,656.091 1439.65,654.983 1434.06,654.983C1428.28,654.983 1423.76,656.169 1420.49,658.542C1418.39,660.063 1417.34,662.1 1417.34,664.651C1417.34,666.979 1418.32,668.97 1420.29,670.627C1422.8,672.73 1428.89,674.923 1438.55,677.206C1448.22,679.489 1455.37,681.85 1460.01,684.289C1464.64,686.729 1468.26,690.063 1470.88,694.293C1473.5,698.523 1474.81,703.748 1474.81,709.97C1474.81,715.609 1473.24,720.891 1470.11,725.815C1466.98,730.738 1462.55,734.397 1456.82,736.792C1451.09,739.186 1443.95,740.384 1435.4,740.384C1422.95,740.384 1413.4,737.508 1406.73,731.756C1400.06,726.005 1396.08,717.624 1394.78,706.613Z" style="fill-rule:nonzero;"/>
                    <path d="M1553.09,738.638L1553.09,697.213L1517.04,640.213L1540.34,640.213L1563.5,679.153L1586.19,640.213L1609.09,640.213L1572.9,697.348L1572.9,738.638L1553.09,738.638Z" style="fill-rule:nonzero;"/>
                    <path d="M1614.93,690.03C1614.93,680.004 1616.42,671.589 1619.42,664.786C1621.66,659.772 1624.72,655.274 1628.59,651.291C1632.46,647.307 1636.7,644.353 1641.31,642.428C1647.44,639.832 1654.52,638.534 1662.53,638.534C1677.03,638.534 1688.63,643.033 1697.34,652.029C1706.04,661.026 1710.4,673.536 1710.4,689.56C1710.4,705.449 1706.08,717.881 1697.44,726.855C1688.8,735.829 1677.25,740.316 1662.8,740.316C1648.16,740.316 1636.52,735.852 1627.88,726.922C1619.25,717.993 1614.93,705.695 1614.93,690.03ZM1635.4,689.358C1635.4,700.503 1637.98,708.952 1643.12,714.703C1648.27,720.455 1654.81,723.33 1662.73,723.33C1670.65,723.33 1677.15,720.477 1682.23,714.77C1687.31,709.063 1689.85,700.503 1689.85,689.09C1689.85,677.81 1687.38,669.396 1682.43,663.846C1677.49,658.295 1670.92,655.52 1662.73,655.52C1654.54,655.52 1647.94,658.329 1642.92,663.946C1637.91,669.564 1635.4,678.034 1635.4,689.358Z" style="fill-rule:nonzero;"/>
                    <path d="M1725.77,640.213L1745.64,640.213L1745.64,693.521C1745.64,701.98 1745.89,707.463 1746.38,709.97C1747.23,713.998 1749.26,717.232 1752.46,719.671C1755.66,722.111 1760.04,723.33 1765.59,723.33C1771.23,723.33 1775.48,722.178 1778.34,719.873C1781.21,717.568 1782.93,714.737 1783.51,711.38C1784.09,708.023 1784.38,702.45 1784.38,694.662L1784.38,640.213L1804.26,640.213L1804.26,691.91C1804.26,703.726 1803.72,712.073 1802.64,716.952C1801.57,721.831 1799.59,725.949 1796.7,729.306C1793.82,732.663 1789.96,735.337 1785.12,737.329C1780.29,739.321 1773.98,740.316 1766.19,740.316C1756.79,740.316 1749.66,739.231 1744.81,737.06C1739.95,734.889 1736.11,732.07 1733.29,728.601C1730.47,725.132 1728.61,721.495 1727.72,717.691C1726.42,712.051 1725.77,703.726 1725.77,692.715L1725.77,640.213Z" style="fill-rule:nonzero;"/>
                    <path d="M1825.27,738.638L1825.27,640.213L1867.1,640.213C1877.62,640.213 1885.26,641.097 1890.03,642.865C1894.79,644.633 1898.61,647.777 1901.47,652.298C1904.34,656.818 1905.77,661.988 1905.77,667.807C1905.77,675.192 1903.6,681.29 1899.26,686.102C1894.92,690.914 1888.43,693.946 1879.79,695.199C1884.09,697.706 1887.63,700.458 1890.43,703.457C1893.23,706.456 1897,711.783 1901.74,719.436L1913.76,738.638L1889.99,738.638L1875.62,717.221C1870.52,709.567 1867.03,704.744 1865.15,702.752C1863.27,700.761 1861.28,699.395 1859.18,698.657C1857.07,697.918 1853.74,697.549 1849.17,697.549L1845.14,697.549L1845.14,738.638L1825.27,738.638ZM1845.14,681.839L1859.85,681.839C1869.38,681.839 1875.33,681.436 1877.71,680.63C1880.08,679.825 1881.94,678.437 1883.28,676.468C1884.62,674.498 1885.29,672.036 1885.29,669.082C1885.29,665.77 1884.41,663.096 1882.64,661.059C1880.87,659.023 1878.38,657.736 1875.15,657.199C1873.54,656.975 1868.71,656.863 1860.65,656.863L1845.14,656.863L1845.14,681.839Z" style="fill-rule:nonzero;"/>
                    <path d="M1962.9,738.638L1962.9,640.213L1982.24,640.213L2022.52,705.941L2022.52,640.213L2040.99,640.213L2040.99,738.638L2021.05,738.638L1981.37,674.453L1981.37,738.638L1962.9,738.638Z" style="fill-rule:nonzero;"/>
                    <path d="M2062,738.638L2062,640.213L2134.98,640.213L2134.98,656.863L2081.88,656.863L2081.88,678.683L2131.29,678.683L2131.29,695.266L2081.88,695.266L2081.88,722.055L2136.86,722.055L2136.86,738.638L2062,738.638Z" style="fill-rule:nonzero;"/>
                    <path d="M2153.71,738.638L2153.71,640.213L2226.69,640.213L2226.69,656.863L2173.59,656.863L2173.59,678.683L2223,678.683L2223,695.266L2173.59,695.266L2173.59,722.055L2228.57,722.055L2228.57,738.638L2153.71,738.638Z" style="fill-rule:nonzero;"/>
                    <path d="M2245.36,640.213L2281.68,640.213C2289.87,640.213 2296.11,640.839 2300.41,642.093C2306.18,643.793 2311.13,646.815 2315.25,651.156C2319.37,655.498 2322.5,660.813 2324.65,667.102C2326.8,673.39 2327.87,681.145 2327.87,690.365C2327.87,698.467 2326.86,705.449 2324.85,711.313C2322.39,718.474 2318.87,724.27 2314.31,728.701C2310.86,732.058 2306.21,734.677 2300.34,736.557C2295.96,737.944 2290.09,738.638 2282.75,738.638L2245.36,738.638L2245.36,640.213ZM2265.23,656.863L2265.23,722.055L2280.07,722.055C2285.62,722.055 2289.62,721.741 2292.09,721.115C2295.31,720.309 2297.98,718.944 2300.11,717.019C2302.24,715.095 2303.97,711.928 2305.31,707.519C2306.66,703.11 2307.33,697.102 2307.33,689.493C2307.33,681.883 2306.66,676.042 2305.31,671.969C2303.97,667.896 2302.09,664.718 2299.67,662.436C2297.26,660.153 2294.19,658.609 2290.47,657.803C2287.7,657.176 2282.26,656.863 2274.16,656.863L2265.23,656.863Z" style="fill-rule:nonzero;"/>
                    <path d="M2339.69,706.613L2359.02,704.733C2360.19,711.223 2362.55,715.99 2366.11,719.034C2369.66,722.077 2374.47,723.599 2380.51,723.599C2386.91,723.599 2391.73,722.245 2394.98,719.537C2398.22,716.829 2399.84,713.662 2399.84,710.037C2399.84,707.709 2399.16,705.729 2397.8,704.095C2396.43,702.461 2394.05,701.04 2390.65,699.832C2388.32,699.026 2383.01,697.594 2374.73,695.535C2364.08,692.894 2356.61,689.649 2352.31,685.8C2346.27,680.384 2343.25,673.782 2343.25,665.994C2343.25,660.981 2344.67,656.292 2347.51,651.928C2350.35,647.564 2354.45,644.241 2359.8,641.958C2365.14,639.676 2371.6,638.534 2379.16,638.534C2391.52,638.534 2400.82,641.242 2407.06,646.658C2413.3,652.074 2416.58,659.303 2416.9,668.344L2397.02,669.217C2396.17,664.159 2394.35,660.522 2391.55,658.307C2388.75,656.091 2384.56,654.983 2378.96,654.983C2373.19,654.983 2368.67,656.169 2365.4,658.542C2363.3,660.063 2362.25,662.1 2362.25,664.651C2362.25,666.979 2363.23,668.97 2365.2,670.627C2367.71,672.73 2373.79,674.923 2383.46,677.206C2393.13,679.489 2400.28,681.85 2404.91,684.289C2409.55,686.729 2413.17,690.063 2415.79,694.293C2418.41,698.523 2419.72,703.748 2419.72,709.97C2419.72,715.609 2418.15,720.891 2415.02,725.815C2411.88,730.738 2407.45,734.397 2401.72,736.792C2395.99,739.186 2388.86,740.384 2380.31,740.384C2367.86,740.384 2358.31,737.508 2351.64,731.756C2344.97,726.005 2340.99,717.624 2339.69,706.613Z" style="fill-rule:nonzero;"/>
                    <path d="M2435.83,719.772L2454.7,719.772L2454.7,733.267C2454.7,738.728 2454.23,743.036 2453.29,746.191C2452.35,749.347 2450.57,752.178 2447.95,754.684C2445.33,757.191 2442.01,759.16 2437.98,760.592L2434.29,752.804C2438.09,751.551 2440.8,749.828 2442.41,747.635C2444.02,745.441 2444.87,742.443 2444.96,738.638L2435.83,738.638L2435.83,719.772Z" style="fill-rule:nonzero;"/>
                </g>
                <path d="M515.399,876.138L515.399,794.363L486.194,794.363L486.194,777.713L564.41,777.713L564.41,794.363L535.272,794.363L535.272,876.138L515.399,876.138Z" style="fill-rule:nonzero;"/>
                <path d="M577.301,876.138L577.301,777.713L597.174,777.713L597.174,816.452L636.114,816.452L636.114,777.713L655.987,777.713L655.987,876.138L636.114,876.138L636.114,833.102L597.174,833.102L597.174,876.138L577.301,876.138Z" style="fill-rule:nonzero;"/>
                <path d="M676.599,876.138L676.599,777.713L718.426,777.713C728.945,777.713 736.587,778.597 741.354,780.365C746.121,782.133 749.937,785.277 752.801,789.798C755.666,794.318 757.098,799.488 757.098,805.307C757.098,812.692 754.927,818.79 750.586,823.602C746.244,828.414 739.754,831.446 731.116,832.699C735.412,835.206 738.96,837.958 741.757,840.957C744.554,843.956 748.325,849.282 753.07,856.936L765.088,876.138L741.321,876.138L726.953,854.721C721.85,847.067 718.359,842.244 716.479,840.252C714.599,838.261 712.608,836.895 710.504,836.157C708.4,835.418 705.066,835.049 700.5,835.049L696.472,835.049L696.472,876.138L676.599,876.138ZM696.472,819.339L711.175,819.339C720.709,819.339 726.662,818.936 729.034,818.13C731.406,817.324 733.264,815.937 734.607,813.968C735.95,811.998 736.621,809.536 736.621,806.582C736.621,803.27 735.737,800.596 733.969,798.559C732.201,796.523 729.706,795.236 726.483,794.699C724.872,794.475 720.038,794.363 711.981,794.363L696.472,794.363L696.472,819.339Z" style="fill-rule:nonzero;"/>
                <path d="M771.802,827.53C771.802,817.504 773.301,809.089 776.3,802.285C778.538,797.272 781.593,792.774 785.464,788.791C789.336,784.807 793.577,781.853 798.187,779.928C804.319,777.332 811.391,776.034 819.403,776.034C833.905,776.034 845.509,780.533 854.214,789.529C862.92,798.526 867.273,811.036 867.273,827.06C867.273,842.949 862.953,855.381 854.315,864.355C845.676,873.329 834.129,877.816 819.671,877.816C805.035,877.816 793.398,873.352 784.759,864.422C776.121,855.493 771.802,843.195 771.802,827.53ZM792.279,826.858C792.279,838.003 794.853,846.451 800,852.203C805.147,857.955 811.682,860.83 819.604,860.83C827.527,860.83 834.028,857.977 839.108,852.27C844.188,846.563 846.728,838.003 846.728,826.59C846.728,815.31 844.255,806.896 839.309,801.345C834.364,795.795 827.795,793.02 819.604,793.02C811.413,793.02 804.811,795.829 799.798,801.446C794.785,807.063 792.279,815.534 792.279,826.858Z" style="fill-rule:nonzero;"/>
                <path d="M882.647,777.713L902.52,777.713L902.52,831.021C902.52,839.48 902.767,844.963 903.259,847.47C904.109,851.498 906.135,854.732 909.335,857.171C912.535,859.611 916.911,860.83 922.461,860.83C928.1,860.83 932.352,859.678 935.217,857.373C938.082,855.068 939.805,852.237 940.387,848.88C940.969,845.523 941.259,839.95 941.259,832.162L941.259,777.713L961.133,777.713L961.133,829.409C961.133,841.226 960.595,849.573 959.521,854.452C958.447,859.331 956.466,863.449 953.579,866.806C950.692,870.163 946.832,872.837 941.998,874.829C937.164,876.82 930.853,877.816 923.065,877.816C913.665,877.816 906.538,876.731 901.681,874.56C896.825,872.389 892.987,869.57 890.167,866.101C887.347,862.632 885.49,858.995 884.594,855.191C883.296,849.551 882.647,841.226 882.647,830.215L882.647,777.713Z" style="fill-rule:nonzero;"/>
                <path d="M1027.87,839.95L1027.87,823.367L1070.7,823.367L1070.7,862.576C1066.54,866.604 1060.51,870.151 1052.61,873.217C1044.71,876.283 1036.71,877.816 1028.61,877.816C1018.31,877.816 1009.34,875.657 1001.68,871.338C994.03,867.018 988.279,860.841 984.43,852.807C980.58,844.773 978.656,836.034 978.656,826.59C978.656,816.34 980.804,807.231 985.101,799.264C989.398,791.297 995.687,785.187 1003.97,780.935C1010.28,777.668 1018.13,776.034 1027.53,776.034C1039.75,776.034 1049.3,778.597 1056.17,783.722C1063.04,788.847 1067.46,795.93 1069.43,804.971L1049.69,808.664C1048.3,803.83 1045.69,800.014 1041.87,797.216C1038.04,794.419 1033.26,793.02 1027.53,793.02C1018.85,793.02 1011.95,795.773 1006.82,801.278C1001.7,806.784 999.133,814.952 999.133,825.784C999.133,837.466 1001.73,846.228 1006.92,852.069C1012.11,857.91 1018.92,860.83 1027.33,860.83C1031.49,860.83 1035.67,860.013 1039.85,858.38C1044.04,856.746 1047.63,854.765 1050.63,852.438L1050.63,839.95L1027.87,839.95Z" style="fill-rule:nonzero;"/>
                <path d="M1089.1,876.138L1089.1,777.713L1108.97,777.713L1108.97,816.452L1147.91,816.452L1147.91,777.713L1167.79,777.713L1167.79,876.138L1147.91,876.138L1147.91,833.102L1108.97,833.102L1108.97,876.138L1089.1,876.138Z" style="fill-rule:nonzero;"/>
                <path d="M1226.6,876.138L1226.6,777.713L1246.47,777.713L1246.47,816.452L1285.41,816.452L1285.41,777.713L1305.29,777.713L1305.29,876.138L1285.41,876.138L1285.41,833.102L1246.47,833.102L1246.47,876.138L1226.6,876.138Z" style="fill-rule:nonzero;"/>
                <rect x="1325.23" y="777.713" width="19.873" height="98.425" style="fill-rule:nonzero;"/>
                <path d="M1359,844.113L1378.33,842.233C1379.5,848.723 1381.86,853.49 1385.41,856.533C1388.97,859.577 1393.77,861.099 1399.82,861.099C1406.22,861.099 1411.04,859.745 1414.29,857.037C1417.53,854.329 1419.15,851.162 1419.15,847.537C1419.15,845.209 1418.47,843.229 1417.11,841.595C1415.74,839.961 1413.36,838.54 1409.95,837.332C1407.63,836.526 1402.32,835.094 1394.04,833.035C1383.39,830.394 1375.91,827.149 1371.62,823.3C1365.58,817.884 1362.55,811.282 1362.55,803.494C1362.55,798.481 1363.98,793.792 1366.82,789.428C1369.66,785.064 1373.76,781.741 1379.1,779.458C1384.45,777.176 1390.91,776.034 1398.47,776.034C1410.83,776.034 1420.13,778.742 1426.37,784.158C1432.61,789.574 1435.89,796.802 1436.2,805.844L1416.33,806.717C1415.48,801.659 1413.66,798.022 1410.86,795.807C1408.06,793.591 1403.87,792.483 1398.27,792.483C1392.5,792.483 1387.98,793.669 1384.71,796.042C1382.61,797.563 1381.56,799.6 1381.56,802.151C1381.56,804.479 1382.54,806.47 1384.51,808.126C1387.02,810.23 1393.1,812.423 1402.77,814.706C1412.44,816.989 1419.59,819.35 1424.22,821.789C1428.85,824.229 1432.48,827.563 1435.1,831.793C1437.72,836.023 1439.03,841.248 1439.03,847.47C1439.03,853.109 1437.46,858.391 1434.33,863.314C1431.19,868.238 1426.76,871.897 1421.03,874.292C1415.3,876.686 1408.16,877.884 1399.62,877.884C1387.17,877.884 1377.62,875.008 1370.95,869.256C1364.28,863.505 1360.29,855.124 1359,844.113Z" style="fill-rule:nonzero;"/>
                <path d="M1507.91,876.138L1484.41,777.713L1504.75,777.713L1519.59,845.321L1537.59,777.713L1561.22,777.713L1578.47,846.463L1593.58,777.713L1613.59,777.713L1589.68,876.138L1568.6,876.138L1549,802.554L1529.46,876.138L1507.91,876.138Z" style="fill-rule:nonzero;"/>
                <path d="M1619.69,827.53C1619.69,817.504 1621.19,809.089 1624.19,802.285C1626.43,797.272 1629.49,792.774 1633.36,788.791C1637.23,784.807 1641.47,781.853 1646.08,779.928C1652.21,777.332 1659.29,776.034 1667.3,776.034C1681.8,776.034 1693.4,780.533 1702.11,789.529C1710.81,798.526 1715.17,811.036 1715.17,827.06C1715.17,842.949 1710.85,855.381 1702.21,864.355C1693.57,873.329 1682.02,877.816 1667.57,877.816C1652.93,877.816 1641.29,873.352 1632.65,864.422C1624.02,855.493 1619.69,843.195 1619.69,827.53ZM1640.17,826.858C1640.17,838.003 1642.75,846.451 1647.89,852.203C1653.04,857.955 1659.58,860.83 1667.5,860.83C1675.42,860.83 1681.92,857.977 1687,852.27C1692.08,846.563 1694.62,838.003 1694.62,826.59C1694.62,815.31 1692.15,806.896 1687.2,801.345C1682.26,795.795 1675.69,793.02 1667.5,793.02C1659.31,793.02 1652.7,795.829 1647.69,801.446C1642.68,807.063 1640.17,815.534 1640.17,826.858Z" style="fill-rule:nonzero;"/>
                <path d="M1730.74,876.138L1730.74,777.713L1772.57,777.713C1783.09,777.713 1790.73,778.597 1795.5,780.365C1800.27,782.133 1804.08,785.277 1806.94,789.798C1809.81,794.318 1811.24,799.488 1811.24,805.307C1811.24,812.692 1809.07,818.79 1804.73,823.602C1800.39,828.414 1793.9,831.446 1785.26,832.699C1789.56,835.206 1793.1,837.958 1795.9,840.957C1798.7,843.956 1802.47,849.282 1807.21,856.936L1819.23,876.138L1795.46,876.138L1781.1,854.721C1775.99,847.067 1772.5,842.244 1770.62,840.252C1768.74,838.261 1766.75,836.895 1764.65,836.157C1762.54,835.418 1759.21,835.049 1754.64,835.049L1750.62,835.049L1750.62,876.138L1730.74,876.138ZM1750.62,819.339L1765.32,819.339C1774.85,819.339 1780.81,818.936 1783.18,818.13C1785.55,817.324 1787.41,815.937 1788.75,813.968C1790.09,811.998 1790.77,809.536 1790.77,806.582C1790.77,803.27 1789.88,800.596 1788.11,798.559C1786.35,796.523 1783.85,795.236 1780.63,794.699C1779.02,794.475 1774.18,794.363 1766.12,794.363L1750.62,794.363L1750.62,819.339Z" style="fill-rule:nonzero;"/>
                <path d="M1829.91,777.713L1866.23,777.713C1874.42,777.713 1880.66,778.339 1884.96,779.593C1890.73,781.293 1895.68,784.315 1899.8,788.656C1903.92,792.998 1907.05,798.313 1909.2,804.602C1911.35,810.89 1912.42,818.645 1912.42,827.865C1912.42,835.967 1911.41,842.949 1909.4,848.812C1906.94,855.974 1903.42,861.77 1898.86,866.201C1895.41,869.558 1890.76,872.177 1884.89,874.057C1880.51,875.444 1874.64,876.138 1867.3,876.138L1829.91,876.138L1829.91,777.713ZM1849.78,794.363L1849.78,859.555L1864.62,859.555C1870.17,859.555 1874.17,859.241 1876.63,858.615C1879.86,857.809 1882.53,856.444 1884.66,854.519C1886.78,852.595 1888.52,849.428 1889.86,845.019C1891.2,840.61 1891.88,834.601 1891.88,826.992C1891.88,819.383 1891.2,813.542 1889.86,809.469C1888.52,805.396 1886.64,802.218 1884.22,799.936C1881.81,797.653 1878.74,796.109 1875.02,795.303C1872.25,794.676 1866.81,794.363 1858.71,794.363L1849.78,794.363Z" style="fill-rule:nonzero;"/>
                <path d="M1968.55,812.692L1964.99,794.363L1964.99,777.713L1985.53,777.713L1985.53,794.363L1982.44,812.692L1968.55,812.692ZM1998.83,812.692L1995.27,794.363L1995.27,777.713L2015.81,777.713L2015.81,794.363L2012.73,812.692L1998.83,812.692Z" style="fill-rule:nonzero;"/>
            </g>
        </g>
    </g>
</svg>
