<?xml version="1.0" encoding="UTF-8" standalone="no"?><!DOCTYPE svg PUBLIC "-//W3C//DTD SVG 1.1//EN" "http://www.w3.org/Graphics/SVG/1.1/DTD/svg11.dtd"><svg width="100%" height="100%" viewBox="0 0 474 111" version="1.1" xmlns="http://www.w3.org/2000/svg" xmlns:xlink="http://www.w3.org/1999/xlink" xml:space="preserve" xmlns:serif="http://www.serif.com/" style="fill-rule:evenodd;clip-rule:evenodd;stroke-linecap:round;stroke-linejoin:round;stroke-miterlimit:1.5;"><g><path d="M90.679,0l-0,109.727l-42.768,0c-12.53,0 -24.547,-4.977 -33.407,-13.837c-8.86,-8.86 -13.837,-20.877 -13.837,-33.407l-0,-62.483l90.012,0Z" style="fill:#fff;"/><path d="M425.864,0c26.092,0 47.244,21.152 47.244,47.244l-0,62.483l-394.321,0l-0,-109.727l347.077,0Z"/><g transform="matrix(52.7778,0,0,52.7778,450.56,73.2743)"></g><text x="95.702px" y="73.274px" style="font-family:'ArialMT', 'Arial';font-size:52.778px;fill:#fff;">City Cross Link</text><g><path d="M57.365,42.498l-32.04,1.47l11.156,13.073c3.119,3.242 6.062,2.621 8.894,-0.433l11.99,-14.11" style="stroke:#000;stroke-width:4.42px;"/><ellipse cx="40.777" cy="27.525" rx="17.285" ry="18.516" style="fill:none;stroke:#000;stroke-width:13.32px;"/><path d="M20.195,65.501c13.458,9.55 27.176,10.756 41.207,-1.196c0.264,-0.905 -7.552,-3.707 -9.659,-2.071c-8.435,6.55 -16.423,3.255 -21.255,0.969c-3.23,-1.528 -8.509,-0.494 -10.293,2.298Z" style="stroke:#000;stroke-width:1.33px;"/><path d="M0.939,95.918c23.521,-18.181 42.425,-26.287 68.872,-12.238c8.031,6.678 -2.148,11.049 -7.436,8.562c-1.166,-0.548 -12.342,-9.488 -20.307,-7.636c-1.234,0.287 -17.191,7.223 -35.734,24.09c-2.325,2.677 -6.817,3.689 -5.395,-12.778Z" style="stroke:#000;stroke-width:1.33px;"/></g></g></svg>